<svg xmlns="http://www.w3.org/2000/svg" viewBox="0 0 64 64">
  <defs>
    <linearGradient id="heartGradient" x1="0%" y1="0%" x2="100%" y2="100%">
      <stop offset="0%" stop-color="#ffd6e7" />
      <stop offset="100%" stop-color="#ff8fb8" />
    </linearGradient>
  </defs>
  <path
    d="M32 55C30.8 55 29.7 54.6 28.8 53.8C20.2 46.5 13 40.7 8.6 35.5C4.1 30.1 2 25.3 2 20.3C2 11.8 8.6 5 17.1 5C22 5 26.7 7.3 30 11.1C33.3 7.3 38 5 42.9 5C51.4 5 58 11.8 58 20.3C58 25.3 55.9 30.1 51.4 35.5C47 40.7 39.8 46.5 31.2 53.8C30.3 54.6 29.2 55 32 55Z"
    fill="url(#heartGradient)"
  />
</svg>
